<?xml version="1.0" encoding="utf-8"?>
<!-- Generator: Adobe Illustrator 25.2.1, SVG Export Plug-In . SVG Version: 6.00 Build 0)  -->
<svg version="1.1" id="Camada_1" xmlns="http://www.w3.org/2000/svg" xmlns:xlink="http://www.w3.org/1999/xlink" x="0px" y="0px"
	 viewBox="0 0 155 41" style="enable-background:new 0 0 155 41;" xml:space="preserve">
<style type="text/css">
	.st0{fill:#FFFFFF;}
</style>
<path class="st0" d="M57.4,20.3C57.4,9,48.4,0,36.9,0S16.4,9,16.4,20.3s9.1,20.3,20.5,20.3S57.4,31.6,57.4,20.3z M48.8,20.3
	c0,6.8-5.2,12.2-11.9,12.2s-11.9-5.4-11.9-12.2S30.3,8.2,36.9,8.2S48.8,13.6,48.8,20.3z"/>
<path class="st0" d="M100.5,10.1C97.3,3.8,90.7,0,82.8,0C71.6,0,62.3,9.1,62.3,20.3s9,20.3,20.4,20.3c11.2,0,19.4-8.4,19.4-19.4
	v-3.1H81.8v7.1h11.4c-1.1,4.5-5.1,7.6-10.3,7.6c-6.7,0-12-5.5-12-12.4C70.8,13.4,76.1,8,82.8,8c4.5,0,8.2,2.1,10.1,5.9L100.5,10.1z"
	/>
<rect x="111.1" y="12.5" class="st0" width="8.3" height="27.9"/>
<rect x="111.1" y="0.3" class="st0" width="8.3" height="8.3"/>
</svg>
